<svg xmlns="http://www.w3.org/2000/svg" width="34" height="32"><path fill="#95e1d3" d="M32.252 9.967c-1.704-3.897-4.751-6.942-8.542-8.604l-.106-.041a6.157 6.157 0 018.639 8.658l.01-.013zM32 16.787v.002c0 4.043-1.583 7.716-4.164 10.433l.006-.007 2.129 2.13A1.555 1.555 0 0128.872 32h-.001a1.582 1.582 0 01-1.101-.451l-2.285-2.287A15.06 15.06 0 0116.787 32c-3.25 0-6.261-1.021-8.731-2.76l.048.032-2.269 2.266a1.574 1.574 0 11-2.228-2.224l2.111-2.109a15.147 15.147 0 01-4.135-10.424c0-8.399 6.809-15.208 15.208-15.208s15.208 6.809 15.208 15.208v.006zM16.787 4.721c-6.664 0-12.066 5.402-12.066 12.066s5.402 12.066 12.066 12.066c6.664 0 12.066-5.402 12.066-12.066 0-6.664-5.402-12.066-12.066-12.066zm6.295 13.64h-6.295a1.574 1.574 0 01-1.574-1.574V8.394a1.574 1.574 0 013.148 0v6.82h4.721a1.574 1.574 0 010 3.148zM1.35 10.188A6.295 6.295 0 016.294.001h.012c1.471 0 2.823.51 3.888 1.363l-.012-.01C6.198 3.09 3.084 6.204 1.391 10.08l-.042.108z"/></svg>