<svg xmlns="http://www.w3.org/2000/svg" width="35" height="32"><path fill="#95e1d3" d="M33.714 26.286H22.857v2.857l2.286 2.286V32H10.286v-.571l2.286-2.286v-2.857H1.715a1.714 1.714 0 01-1.714-1.714V1.715C.001.768.768.001 1.715.001h32c.947 0 1.714.767 1.714 1.714v22.857c0 .947-.767 1.714-1.714 1.714zm-.571-24H2.286v19.429h30.857V2.286zm-18.857 8c.473.001.901.193 1.211.503l1.074 1.074 3.36-3.36a1.712 1.712 0 012.968 1.168c0 .495-.209.94-.545 1.253l-.001.001-4.571 4.571a1.71 1.71 0 01-2.422 0l-2.286-2.286a1.715 1.715 0 011.212-2.925z"/></svg>