<svg xmlns="http://www.w3.org/2000/svg" width="34" height="32"><path fill="#95e1d3" d="M33.574 16.787v.007a1.566 1.566 0 01-2.644 1.136l.001.001v.011L16.791 3.799 2.683 17.911a1.574 1.574 0 01-2.678-1.123v-.007c0-.443.185-.842.483-1.125l.001-.001L15.658.484a1.581 1.581 0 011.134-.483h.097c.024 0 .047.011.071.011.39.042.731.224.978.492l.001.001 6.19 6.19V5.247a1.574 1.574 0 013.148 0v4.595l5.876 5.875c.262.278.423.654.423 1.067v.003zm-3.147 2.623v11.017c0 .869-.705 1.574-1.574 1.574h-3.148v-12.59H19.41v12.59H4.721a1.574 1.574 0 01-1.574-1.574V19.41l13.64-13.64zm-16.263 0H7.869v6.295h6.295V19.41z"/></svg>